<svg width="308" height="308" viewBox="0 0 308 308" fill="none" xmlns="http://www.w3.org/2000/svg">
<rect width="308" height="308" rx="154" fill="black"/>
<path d="M124.781 123.021L118.492 150.194C116.965 156.78 114.641 162.1 111.52 166.156C106.096 173.174 99.9782 176.684 93.165 176.684C86.3519 176.684 81.8516 173.174 79.6641 166.156C79.0944 164.333 78.8096 162.248 78.8096 159.901C78.8096 157.03 79.2311 153.795 80.0742 150.194C81.6465 143.45 83.9593 138.402 87.0127 135.053C88.9268 132.956 90.818 131.339 92.6865 130.199H82.9795L83.082 129.857L86.9102 124.389H105.812L105.709 124.73L101.881 130.199C98.554 131.247 95.6146 133.389 93.0625 136.625C90.1914 140.248 88.1406 144.771 86.9102 150.194C86.0898 153.795 85.6797 156.859 85.6797 159.389C85.6797 160.984 85.8392 162.351 86.1582 163.49C87.5254 168.412 90.3167 170.873 94.5322 170.873C98.7249 170.873 102.633 168.412 106.256 163.49C108.535 160.391 110.335 155.959 111.656 150.194L117.228 126.098L124.439 123.021H124.781ZM127 177.367L131.649 157.201C132.742 152.439 134.451 148.576 136.776 145.614C140.9 140.351 145.491 137.719 150.55 137.719H155.164L155.062 138.061L151.199 143.529H149.183C146.608 143.529 144.215 145.033 142.005 148.041C140.638 149.91 139.464 152.963 138.485 157.201L134.554 174.291L127.342 177.367H127ZM166.407 176.684C161.416 176.684 158.055 174.052 156.324 168.788C155.868 167.398 155.64 165.814 155.64 164.037C155.64 161.964 155.936 159.685 156.529 157.201C157.622 152.439 159.331 148.576 161.656 145.614C165.78 140.351 170.371 137.719 175.43 137.719C180.489 137.719 183.85 140.351 185.513 145.614C185.969 147.05 186.197 148.668 186.197 150.468C186.197 152.496 185.912 154.74 185.342 157.201L182.095 171.215C181.024 175.886 179.327 179.748 177.002 182.802C172.992 188.065 168.4 190.697 163.228 190.697H154.991L155.059 190.355L158.921 184.887H164.561C167.386 184.887 169.779 183.383 171.739 180.375C173.22 178.096 174.393 175.043 175.259 171.215L178.506 157.201C179.144 154.444 179.463 152.188 179.463 150.434C179.463 149.499 179.372 148.702 179.19 148.041C178.37 145.033 176.661 143.529 174.063 143.529C171.465 143.529 169.061 145.045 166.851 148.075C165.484 149.944 164.322 152.986 163.365 157.201C162.727 160.004 162.408 162.294 162.408 164.071C162.408 164.937 162.487 165.701 162.647 166.361C163.467 169.346 165.153 170.85 167.705 170.873H170.337L170.235 171.215L166.407 176.684ZM226.389 163.114C225.478 165.302 224.395 167.193 223.142 168.788C219.041 174.052 214.438 176.684 209.334 176.684C204.366 176.684 201.005 174.052 199.251 168.788C198.795 167.421 198.567 165.849 198.567 164.071C198.567 161.975 198.863 159.685 199.456 157.201C200.504 152.553 202.213 148.69 204.583 145.614C208.639 140.351 213.23 137.719 218.357 137.719C222.254 137.719 225.125 138.938 226.97 141.376C228.406 143.267 229.124 145.295 229.124 147.46C229.124 148.28 229.021 149.112 228.816 149.955C227.973 153.441 226.082 156.483 223.142 159.081C220.226 161.656 216.625 162.943 212.341 162.943H209.71L209.812 162.602L213.606 157.133C216.067 157.133 217.981 156.472 219.348 155.15C220.693 153.852 221.638 152.097 222.185 149.887C222.322 149.34 222.39 148.816 222.39 148.314C222.39 147.198 222.083 146.241 221.467 145.443C220.556 144.167 219.063 143.529 216.99 143.529C214.21 143.529 211.817 145.033 209.812 148.041C208.354 150.229 207.18 153.282 206.292 157.201C205.654 160.027 205.335 162.317 205.335 164.071C205.335 164.96 205.414 165.723 205.574 166.361C206.44 169.369 208.149 170.873 210.701 170.873C213.298 170.873 215.691 169.369 217.879 166.361L226.047 163.114H226.389Z" fill="white"/>
</svg>
